<svg version="1" xmlns="http://www.w3.org/2000/svg" width="1365.333" height="1365.333" viewBox="0 0 1024.000000 1024.000000"><path d="M67.3 373.4c-.3.5-.6 50.4-.6 111v110.1h207.7l2.1-6c1.2-3.3 4.5-12 7.3-19.3 2.8-7.4 5.3-14.1 5.4-15 .3-1.5-6.8-1.7-87.6-1.7h-87.9v-89.8c0-81.9-.1-89.7-1.6-89.8-10.9-.5-44.4-.2-44.8.5zM381 372.8l-2.5.3V595h214.2l3.1-7.8c8-20.5 13.1-34.6 12.7-35-.3-.3-41.7-.5-92-.5H425l.2-22.1.3-22.1 58.5-.2c32.2-.1 59.4-.2 60.5-.2 1.9-.1 2-.8 2-21.6l.1-21.5H425v-48.8h83c45.6 0 83.3-.3 83.7-.5.9-.6.9-40.4 0-41.3-.6-.6-205.7-1.2-210.7-.6zM786.6 373l-4.9.5-33.4 87.5c-18.3 48.1-37.3 98-42.2 110.8l-8.8 23.2 25-.2 25-.3 6.1-16.5 6.1-16.5 67.5-.2 67.6-.2 2.3 6.2c1.3 3.4 4.2 11 6.5 16.9l4.1 10.8h24.8c13.6 0 24.7-.2 24.7-.5 0-.6-15.7-42.2-17-45-.5-1.1-12.5-32.2-26.6-69-27.2-71.2-30-78.4-37-96.5l-4.4-11.5h-40.3c-22.1 0-42.4.2-45.1.5zm53.6 44c.5.8 9.3 23.8 19.7 51l18.8 49.5-50.5.3c-27.8.1-50.7 0-51-.2-.2-.3 1-4.2 2.8-8.8 1.7-4.6 8.8-23.2 15.6-41.3 6.9-18.2 12.9-33.9 13.3-35 .5-1.1 1.9-4.7 3.2-8 1.2-3.3 2.6-6.7 3-7.5 1.1-2.2 23.8-2.2 25.1 0zM242 687.4c-11.7 2.4-18.3 9.8-18.3 20.4 0 15.6 11.4 24.3 29.7 22.9 9.9-.8 14.7-3 19.4-9.1 3.4-4.5 2.9-6.3-1.8-6.8-3.6-.3-4.5.1-8.4 3.8-5.8 5.5-11.9 6.4-21.2 3.4-7.1-2.4-10.8-11.4-7.8-19.1 2.1-5.1 6.8-7.9 14.3-8.6 6.8-.6 11.9.8 15.1 4.2 1.9 2 3.3 2.5 7.2 2.5h4.9l-1.7-3.3c-.9-1.7-2.5-4-3.6-5-5.3-5.1-17.5-7.4-27.8-5.3zM622.3 687.1c-12.5 2.3-19.3 10.1-19.3 22.3 0 4.1 2.9 11.2 5.9 14.3 4.4 4.7 10 6.6 19.4 6.9 13.4.5 22-3.4 25.4-11.5.8-1.8 1.3-3.5 1.1-3.6-.2-.2-2.2-.5-4.6-.6-3.6-.3-4.6.1-6.5 2.3-4 4.7-8.7 6.6-15.1 6.2-10.5-.7-16.6-6.2-16.6-15.1 0-10.3 10.6-16.3 23.9-13.7 1.7.4 4.6 2 6.2 3.5 2.5 2.3 4 2.9 7.5 2.9 2.4 0 4.4-.2 4.4-.5 0-2.8-5.4-9.2-9.6-11.3-4.4-2.3-15.3-3.3-22.1-2.1zM295.9 690c-.1.8-.1 2.6-.1 4s.2 10.3.3 19.7c.2 16.8.3 17.3 2.3 17.4 3.7.1 34 .1 37.2 0 2.9-.1 3.1-.3 2.8-3.3-.2-1.7-.6-3.3-.9-3.6-.2-.3-7.6-.5-16.2-.6l-15.8-.1-.3-5.3-.3-5.2H333v-7.6l-13.7.1h-13.8l-.3-4.8-.3-4.7H337v-7.5h-20.5c-17.5 0-20.5.2-20.6 1.5zM359 709.5v21.2h4.5c5 .1 4.8.7 4.7-10.3l-.1-6h7.6c4.8.1 7.8.5 8 1.3.2.6 1.3 2.2 2.5 3.5 1.1 1.2 3.2 3.9 4.7 5.8 1.4 1.9 3.3 3.9 4.1 4.5 1.6 1 11 1.5 11 .6 0-.3-2.9-4.1-6.5-8.3l-6.5-7.6 4.4-2.1c6.4-3.2 8.9-9.9 6.2-16.6-2.5-5.8-6.1-6.8-26.8-7l-17.8-.1v21.1zm33.8-12.9c1.4 1 2.2 2.4 2.2 4.3 0 4.8-2 5.6-15.4 5.6h-12.1l-.3-5.8-.3-5.8 11.8.2c8.2.1 12.5.6 14.1 1.5zM445.1 688.9c-.4.4-2.2 3.1-3.8 6.1-1.7 3-6.5 11.7-10.7 19.3-4.2 7.5-7.7 14.2-7.9 14.9-.1.8 1.4 1.2 4.5 1.3 4.6 0 4.7 0 6.9-4.7 1.2-2.7 2.8-4.8 3.6-4.9h10.8c16.4 0 15-.4 16.5 4.2.8 2.2 1.8 4.3 2.4 4.6 1.7 1.1 9.6 1.1 9.6 0 0-.5-2-4.6-4.4-9.1-2.4-4.4-6.9-13.1-10.1-19.1-3.2-6.1-6.2-11.4-6.7-12-.9-1-9.3-1.5-10.7-.6zm9.9 17.3l4 7.8h-19.1l4.7-9.1c3.3-6.5 4.9-8.7 5.5-7.7.5.7 2.7 4.8 4.9 9zM496.6 688.9c-.2.3-.3 9.8-.2 21.1l.1 20.5h3.8c4.3.1 3.9 1.8 3.9-17.5l.1-13.5 7.5 15.7 7.5 15.6 3.4-.3c1.8-.1 3.6-.4 3.8-.7.2-.2 3.6-7.1 7.5-15.4 6-12.7 7-14.4 7.1-11.4 0 1.9.1 8.8.1 15.2 0 6.5.3 11.8.7 11.9.3.1 2.1.2 3.9.4l3.2.3.1-6.2c.1-10.7.1-24.9 0-30.7l-.1-5.5h-5.7c-5.2.1-5.9.4-7 2.6-.7 1.4-4 8.3-7.4 15.5-3.4 7.2-6.4 12.3-6.6 11.5-.3-.8-2.2-5.1-4.2-9.5-2.1-4.4-5-10.7-6.5-14l-2.7-6-6-.1c-3.3 0-6.1.2-6.3.5zM573 709.5v21.2l4.7-.1 4.8-.1v-20.8c0-11.4-.2-20.7-.5-20.8-.3-.1-2.4-.2-4.7-.4l-4.3-.2v21.2zM676.1 688.9c-.6.4-.9 9.2-.9 20.8 0 22.2-.2 21.6 6.3 20.3l3-.5v-17h30l.3 9.1.3 9 4.4.1c3.5.1 4.5-.3 4.6-1.6.4-9.6.2-38.5-.3-39.4-.4-.6-2.5-1.2-4.7-1.3l-4-.2-.3 8.2-.3 8.1h-30v-15.9l-3.7-.1c-2.1-.1-4.2.1-4.7.4zM748.8 689c-.1.3-.2 9.8-.2 21.2l-.1 20.8 4.5.1c5.4.1 36.2.1 37.3 0 1.3-.2.8-7.1-.5-7.2-.7-.1-8.3-.2-16.8-.2l-15.4-.2v-5l-.1-5 14.2-.3 14.1-.3-.3-3.2c-.2-1.7-.4-3.4-.4-3.7-.1-.3-6.3-.6-13.8-.5h-13.8v-9l16-.5 16-.5.1-3.3c.1-1.7-.4-3.3-1-3.3-3.7-.4-39.6-.3-39.8.1z"/></svg>