<?xml version="1.0" encoding="utf-8"?>
<!-- Generator: Adobe Illustrator 23.0.1, SVG Export Plug-In . SVG Version: 6.00 Build 0)  -->
<svg version="1.1" id="design-for-love" xmlns="http://www.w3.org/2000/svg" xmlns:xlink="http://www.w3.org/1999/xlink" x="0px"
	 y="0px" viewBox="0 0 1411 118" style="enable-background:new 0 0 1411 118;" xml:space="preserve">
<style type="text/css">
	.st0{fill-rule:evenodd;clip-rule:evenodd;fill:#FFFFFF;}
	.st1{fill-rule:evenodd;clip-rule:evenodd;fill:#EE4840;}
</style>
<path id="design-for" class="st0" d="M44,7.4H0.4v107.7H44c32.5,0,55.6-22.5,55.6-53.9C99.6,29.7,76.6,7.4,44,7.4z M42.6,87.9H30.2
	V34.6h12.4c15.9,0,26.6,10.6,26.6,26.6C69.2,77.1,58.5,87.9,42.6,87.9L42.6,87.9z M144.5,89.4V73.2h35.4V48.9h-35.4V33.1h39.4V7.4
	H115v107.7h70.2V89.4H144.5L144.5,89.4z M240.4,117.7c25,0,43.1-12.2,43.1-35.7c0-24.6-20.7-29.9-36.6-34
	c-10.1-2.5-18.2-4.6-18.2-10.7c0-5,5.1-7.3,10.4-7.3c6.2,0,11.2,3.2,11.2,10h29.8c0-21.9-14.8-35.2-40.6-35.2
	c-25.4,0-41,12.1-41,33.4c0,24.5,19.9,29.3,35.4,33.1c10.2,2.5,18.6,4.5,18.6,11.2c0,5.9-5.9,9.2-12.2,9.2
	c-6.8,0-12.7-3.7-12.7-11.4H197C197,103.8,214,117.7,240.4,117.7L240.4,117.7L240.4,117.7z M299,115.1H329V7.4H299V115.1z
	 M399.4,57.6v18.7h26.7C422.7,84.6,413,90,401.7,90c-16.3,0-27-11.7-27-28.7c0-17.2,10.9-28.9,27-28.9c11,0,20.6,5.8,24.5,14.9h31.1
	c-4.6-25-27.6-42.7-55.9-42.7c-33.2,0-57.1,23.9-57.1,56.6s24.4,56.5,57.4,56.5c33.7,0,56.7-25,56.7-60.3L399.4,57.6L399.4,57.6z
	 M540.7,7.4v56.5L499.4,7.4h-26v107.7h28.8V56.7l42.8,58.4h24.5V7.4H540.7L540.7,7.4z M692.2,34.3V7.4h-68.5v107.7h29.9V77.4h34.6
	v-26h-34.6V34.3L692.2,34.3L692.2,34.3z M761.7,117.8c34.5,0,59.1-23.6,59.1-56.6S796.2,4.7,761.7,4.7c-34.6,0-59.3,23.6-59.3,56.6
	S727,117.8,761.7,117.8L761.7,117.8L761.7,117.8z M761.7,90.2c-16.4,0-28.4-12.2-28.4-29s12-29,28.4-29s28.2,12.1,28.2,29
	S778,90.2,761.7,90.2L761.7,90.2z M893.8,115.1h33.1l-21.4-39.2c10.8-6.3,17.3-17.9,17.1-30.4c0-22.5-16.8-38.1-40-38.1h-46.7v107.7
	h29.7V82.2h10.8L893.8,115.1z M865.6,33.8h13.6c8.3,0,13.1,4.9,13.1,11.6s-4.8,11.7-13.1,11.7h-13.6V33.8z"/>
<path id="love" class="st1" d="M1003.4,87.9V7.4h-30.1v107.7h68.4V87.9H1003.4z M1108.7,117.8c34.5,0,59.1-23.6,59.1-56.6
	s-24.6-56.6-59.1-56.6c-34.6,0-59.3,23.6-59.3,56.6S1074.1,117.8,1108.7,117.8L1108.7,117.8z M1108.7,90.2
	c-16.4,0-28.4-12.2-28.4-29s12-29,28.4-29s28.2,12.1,28.2,29S1125.1,90.2,1108.7,90.2L1108.7,90.2z M1249.9,7.4l-21.4,66.9l-22-66.9
	h-33.9l42.1,107.7h27.6l41.2-107.7H1249.9z M1323.9,89.4V73.2h35.4V48.9h-35.4V33.1h39.4V7.4h-68.9v107.7h70.2V89.4L1323.9,89.4
	L1323.9,89.4z M1392.9,0.2c-9.8,0-17.8,7.9-17.8,17.7s7.9,17.8,17.7,17.8c9.8,0,17.8-7.9,17.8-17.7c0,0,0-0.1,0-0.1
	C1410.6,8.2,1402.7,0.2,1392.9,0.2C1392.9,0.2,1392.9,0.2,1392.9,0.2z M1392.9,31.7c-7.6,0-13.8-6.2-13.8-13.8
	c0-7.6,6.2-13.8,13.8-13.7c7.6,0,13.7,6.1,13.7,13.7C1406.7,25.5,1400.5,31.7,1392.9,31.7C1392.9,31.7,1392.9,31.7,1392.9,31.7z
	 M1400.4,15c0.1-3.3-2.5-6.1-5.8-6.2c-0.1,0-0.3,0-0.4,0h-7.7v17.9h4.1v-5.9h2.6l3.4,5.9h4.2l-3.8-6.5
	C1399.2,19.4,1400.5,17.3,1400.4,15L1400.4,15L1400.4,15z M1390.6,12.5h3.2c1.3-0.1,2.4,0.8,2.5,2c0,0.1,0,0.2,0,0.3
	c0,1.2-1,2.3-2.2,2.3c-0.1,0-0.2,0-0.4,0h-3.2V12.5z"/>
</svg>
