<?xml version="1.0" encoding="utf-8"?>
<!-- Generator: Adobe Illustrator 23.0.1, SVG Export Plug-In . SVG Version: 6.00 Build 0)  -->
<svg version="1.1" id="dna" xmlns="http://www.w3.org/2000/svg" xmlns:xlink="http://www.w3.org/1999/xlink" x="0px" y="0px"
	 viewBox="0 0 58 15" style="enable-background:new 0 0 58 15;" xml:space="preserve">
<style type="text/css">
	.st0{fill-rule:evenodd;clip-rule:evenodd;fill:#FFFFFF;}
</style>
<path id="dna_1_" class="st0" d="M41.3,14.6c0,0-0.1,0-0.1,0c-0.9,0-1.7-0.8-1.7-1.7l0,0c0-0.4,0.1-0.7,0.3-1l5.9-9.8
	c0.3-0.5,0.7-0.9,1.2-1.2c0.5-0.3,1.1-0.5,1.6-0.5c0.6,0,1.2,0.2,1.7,0.5c0.5,0.3,0.9,0.7,1.2,1.2l6.1,9.9c0.5,0.8,0.3,1.9-0.5,2.4
	c-0.3,0.2-0.6,0.3-0.9,0.3c-0.6,0-1.2-0.3-1.5-0.9c0,0-5.6-9.1-5.7-9.3c-0.1-0.1-0.2-0.2-0.3-0.1c0,0-0.1,0.1-0.1,0.1l-5.7,9.3
	c0,0.1-0.1,0.2-0.1,0.2C42.3,14.3,41.8,14.6,41.3,14.6 M1.9,10.9h9.1c0.5,0.1,1,0,1.4-0.3c0.6-0.4,1-1,1.1-1.7
	c0.1-0.6,0.1-1.3,0.1-1.9c0-0.3,0-0.7-0.1-1c-0.2-0.6-0.6-1.2-1.1-1.6C12.1,4.1,11.7,4,11.2,4H1.9C1,4.1,0.2,3.4,0.2,2.4
	c0,0,0-0.1,0-0.1c0-1,0.7-1.8,1.7-1.8h10.7c0.8,0,1.5,0.2,2.1,0.7c0.7,0.4,1.2,0.9,1.6,1.6c0.4,0.6,0.6,1.3,0.8,2.1
	c0.2,0.7,0.3,1.5,0.3,2.2c0,1.1-0.1,2.1-0.3,3.1c-0.2,0.7-0.4,1.4-0.8,2c-0.4,0.7-0.9,1.2-1.6,1.6c-0.6,0.4-1.4,0.6-2.1,0.7H2
	c-1,0-1.8-0.8-1.8-1.8C0.2,11.7,0.9,10.9,1.9,10.9C1.9,10.9,1.9,10.9,1.9,10.9L1.9,10.9z M34.4,10C34.4,10,34.4,9.9,34.4,10
	c0-0.2,0-7.7,0-7.9c0.1-0.9,0.9-1.7,1.8-1.6c0.9,0,1.6,0.7,1.6,1.6c0,0,0,0,0,0v10.1c0.1,1.3-1,2.4-2.3,2.5c-0.1,0-0.1,0-0.2,0
	c-0.4,0-0.7-0.1-1.1-0.2c-0.3-0.1-0.5-0.2-0.7-0.4c-0.4-0.3-10.8-8.8-11-8.9c0,0-0.1,0-0.1-0.1c0,0.8,0,7.9,0,7.9
	c-0.1,0.9-0.9,1.7-1.8,1.6c-0.9,0-1.6-0.7-1.6-1.6V2.9c0-1.4,1.1-2.5,2.4-2.5c0,0,0.1,0,0.1,0c0.4,0,0.7,0.1,1.1,0.2
	c0.3,0.1,0.5,0.2,0.7,0.4l11,8.9C34.3,9.9,34.4,10,34.4,10"/>
</svg>
