<?xml version="1.0" encoding="utf-8"?>
<!-- Generator: Adobe Illustrator 23.0.1, SVG Export Plug-In . SVG Version: 6.00 Build 0)  -->
<svg version="1.1" id="love_1_" xmlns="http://www.w3.org/2000/svg" xmlns:xlink="http://www.w3.org/1999/xlink" x="0px" y="0px"
	 viewBox="0 0 1371 402" style="enable-background:new 0 0 1371 402;" xml:space="preserve">
<style type="text/css">
	.st0{opacity:0.1;fill:none;stroke:#FFFFFF;stroke-width:4;enable-background:new    ;}
</style>
<path id="letter-0" class="st0" d="M107.6,294.6V12H2v378h240v-95.4H107.6L107.6,294.6z"/>
<path id="letter-1" class="st0" d="M475.1,399.6c121.2,0,207.6-82.7,207.6-198.5S596.3,2.4,475.1,2.4c-121.5,0-208.2,83-208.2,198.6
	S353.6,399.6,475.1,399.6L475.1,399.6L475.1,399.6z M475.1,302.7c-57.5,0-99.8-42.8-99.8-101.6s42.3-101.6,99.8-101.6
	s99.2,42.5,99.2,101.6S532.6,302.7,475.1,302.7L475.1,302.7z"/>
<path id="letter-2" class="st0" d="M968.5,12l-75.3,235L816,12H697.2L845,390h97l144.7-378H968.5z"/>
<path id="letter-3" class="st0" d="M1226.2,299.7v-56.6h124.1v-85.4h-124.1V102h138.2V12h-241.9v378H1369v-90.3H1226.2L1226.2,299.7
	z"/>
</svg>
