<?xml version="1.0" encoding="utf-8"?>
<!-- Generator: Adobe Illustrator 23.0.1, SVG Export Plug-In . SVG Version: 6.00 Build 0)  -->
<svg version="1.1" id="moca" xmlns="http://www.w3.org/2000/svg" xmlns:xlink="http://www.w3.org/1999/xlink" x="0px" y="0px"
	 viewBox="0 0 80 28" style="enable-background:new 0 0 80 28;" xml:space="preserve">
<style type="text/css">
	.st0{fill-rule:evenodd;clip-rule:evenodd;fill:#FFFFFF;}
</style>
<path id="moca_1_" class="st0" d="M70.3,14.8l1.9-4.6l1.9,4.6H70.3z M76.3,20.3h3.2L73.9,6.7h-3.4l-5.6,13.6h3.2l1.2-2.8h5.9
	L76.3,20.3z M58.1,6.5c-3.9-0.1-7.1,2.9-7.2,6.8s3,7.1,6.8,7.2c0.1,0,0.2,0,0.3,0c2.6,0.2,5.1-1.2,6.5-3.5l-2.7-1.2
	c-0.8,1.4-2.2,2.2-3.8,2c-2.4-0.2-4.3-2.3-4.1-4.7C54,10.9,55.8,9.2,58,9c1.5-0.1,3,0.7,3.8,2l2.7-1.2C63.2,7.6,60.7,6.3,58.1,6.5
	 M42.1,17.9c-2.4,0.1-4.4-1.8-4.5-4.3c-0.1-2.4,1.8-4.4,4.3-4.5c2.4-0.1,4.4,1.8,4.5,4.3v0.1c0.2,2.3-1.6,4.2-3.8,4.4
	C42.4,17.9,42.2,17.9,42.1,17.9 M42.1,20.5c4.4,0,7.3-3,7.3-7s-2.9-7-7.3-7s-7.3,3-7.3,7S37.7,20.5,42.1,20.5 M24.4,20.3h1.7l3.4-7
	v7h3V6.7h-3l-4.3,9l-4.3-9h-3v13.6h3v-7L24.4,20.3z M5,14.3l-4.5,6.9c-0.2,0.3-0.1,0.7,0.2,0.9c0.1,0.1,0.2,0.1,0.4,0.1H10
	c0.4,0,0.7-0.3,0.7-0.7c0-0.1,0-0.2-0.1-0.4l-4.5-6.9c-0.2-0.3-0.6-0.4-0.9-0.2C5.1,14.2,5.1,14.2,5,14.3 M6.1,12.6l4.5-6.9
	c0.2-0.3,0.1-0.7-0.2-0.9l0,0c-0.1-0.1-0.2-0.1-0.3-0.1h-9C0.8,4.8,0.5,5.1,0.5,5.4l0,0c0,0.1,0,0.2,0.1,0.4L5,12.6
	c0.2,0.3,0.6,0.4,0.9,0.2C6,12.8,6.1,12.7,6.1,12.6 M7.1,2.1c0,0.9-0.7,1.6-1.5,1.6C4.7,3.7,4,3,4,2.2c0-0.9,0.7-1.6,1.5-1.6l0,0
	l0,0C6.4,0.6,7.1,1.3,7.1,2.1L7.1,2.1"/>
</svg>
