<?xml version="1.0" encoding="utf-8"?>
<!-- Generator: Adobe Illustrator 23.0.1, SVG Export Plug-In . SVG Version: 6.00 Build 0)  -->
<svg version="1.1" id="shinteck" xmlns="http://www.w3.org/2000/svg" xmlns:xlink="http://www.w3.org/1999/xlink" x="0px" y="0px"
	 viewBox="0 0 132 32" style="enable-background:new 0 0 132 32;" xml:space="preserve">
<style type="text/css">
	.st0{fill-rule:evenodd;clip-rule:evenodd;fill:#FFFFFF;}
</style>
<path id="shinteck_1_" class="st0" d="M115.3,22.1c-2,0-3.2-1.1-3.2-3.9c0-2.7,0.8-3.7,3.2-3.7c0.8,0,1.5,0.2,2.2,0.4l0.2-2.8
	c-1-0.4-2.1-0.5-3.1-0.5c-4.2,0-6,2.4-6,6.7c0,4.5,2,6.7,5.9,6.7c1.2,0,2.3-0.2,3.3-0.8l-0.2-2.6C116.9,21.9,116.1,22.1,115.3,22.1
	 M15.9,0.4C7.3,0.5,0.4,7.6,0.5,16.3c0.2,8.6,7.3,15.5,15.9,15.4C25,31.5,31.8,24.5,31.8,16C31.7,7.3,24.6,0.3,15.9,0.4 M16.6,20.8
	h-3.3l-0.7-4.4l-0.1-0.9h0l-0.1,0.9l-0.6,4.4H8.4l-1.9-8.4h2.9l0.6,4.7l0.1,0.9h0l0.1-0.9l0.8-4.7h3l0.8,4.6l0.1,0.9h0L15,17
	l0.7-4.6h2.8L16.6,20.8z M21.3,20.9c-1,0-1.9-0.2-2.8-0.6l0.3-2.2c0.7,0.4,1.6,0.6,2.4,0.6c0.6,0,0.8-0.1,0.8-0.4
	c0-0.7-3.5-0.4-3.5-3.3c0-1.5,1-2.8,3.4-2.8c0.9,0,1.7,0.1,2.5,0.4l-0.3,2.2c-0.7-0.2-1.4-0.3-2.1-0.3c-0.8,0-0.9,0.1-0.9,0.3
	c0,0.8,3.5,0.4,3.5,3.3C24.7,19.9,23.4,20.9,21.3,20.9 M43.4,15.3c0-0.7,0.6-1.1,1.7-1.1c1.2,0,2.4,0.2,3.5,0.7l0.3-2.7
	c-1.2-0.5-2.4-0.7-3.7-0.7c-3.4,0-5,1.7-5,4c0,4.5,6.1,3.3,6.1,5.4c0,0.8-0.6,1.3-1.9,1.3c-1.3,0-2.6-0.3-3.7-0.9L40.3,24
	c1.3,0.6,2.7,0.9,4.1,0.9c3.5,0,5-1.7,5-4.3C49.4,16.1,43.4,17.3,43.4,15.3 M101.3,11.5c-3.9,0-5.8,2.4-5.8,6.5c0,4.5,2,6.9,6.5,6.9
	c1.5,0,2.9-0.3,4.3-0.8l-0.4-2.7c-1.1,0.4-2.3,0.6-3.5,0.6c-2.2,0-3.3-0.8-3.5-3h7.6c0.1-0.5,0.1-1,0.1-1.5
	C106.7,13.4,104.7,11.5,101.3,11.5 M99,16.9c0.1-1.9,0.8-2.6,2.4-2.6c1.4,0,2.3,0.7,2.3,2.6H99z M58.6,11.5c-1.2,0-2.3,0.4-3.2,1.1
	l-0.1,0l0-1.7V7.9L52,8v16.6h3.3v-9.3c0.6-0.6,1.4-1,2.2-1c1-0.2,1.9,0.5,2.1,1.5c0,0.2,0,0.4,0,0.5v8.2H63v-8.2
	C63,13.3,61.4,11.5,58.6,11.5 M79.8,11.5c-1.3,0-2.6,0.4-3.6,1.3l-0.5-1.1l-2.4,0.1v12.9h3.4v-9.3c0.5-0.6,1.4-1,2.2-1
	c1.4,0,2.1,0.6,2.1,2v8.2h3.3v-8.2C84.3,13.2,82.5,11.5,79.8,11.5 M91.2,8.6l-2.6,0.2L88,11.7h-1.6v2.5h1.5v6.7c0,2.5,1.3,4,3.9,4
	c0.8,0,1.5-0.1,2.2-0.4l-0.2-2.4c-0.3,0.1-0.7,0.2-1,0.1c-0.7,0.1-1.4-0.3-1.5-1c0-0.1,0-0.3,0-0.4v-6.6h2.9v-2.5h-2.9L91.2,8.6
	L91.2,8.6z M66.3,24.6h3.4v-13l-3.4,0.1V24.6L66.3,24.6z M68.1,7.5c-1.3,0-1.9,0.5-1.9,1.4c0,1,0.6,1.4,1.9,1.4S70,9.9,70,8.9
	S69.4,7.5,68.1,7.5 M128.3,17.6l3.6-5.9h-3.7l-2.7,4.7h-1.7V7.9L120.4,8v16.6h3.4v-5.6h1.7l2.8,5.6h3.8L128.3,17.6z"/>
</svg>
