<?xml version="1.0" encoding="utf-8"?>
<!-- Generator: Adobe Illustrator 23.0.1, SVG Export Plug-In . SVG Version: 6.00 Build 0)  -->
<svg version="1.1" id="websolute" xmlns="http://www.w3.org/2000/svg" xmlns:xlink="http://www.w3.org/1999/xlink" x="0px" y="0px"
	 viewBox="0 0 164 32" style="enable-background:new 0 0 164 32;" xml:space="preserve">
<style type="text/css">
	.st0{fill-rule:evenodd;clip-rule:evenodd;fill:#FFFFFF;}
</style>
<path id="websolute_1_" class="st0" d="M153.7,17.1c0.1,0.8,0.5,1.6,1.2,2.2c0.8,0.6,1.7,1,2.7,0.9c0.3,0,0.6,0,0.9-0.1
	c0.3-0.1,0.7-0.2,1-0.3c0.3-0.1,0.6-0.2,0.9-0.4c0.3-0.2,0.5-0.3,0.8-0.5l1.6,2.3c-0.7,0.6-1.6,1.1-2.5,1.4c-1,0.3-2,0.5-3.1,0.5
	c-1,0-1.9-0.2-2.8-0.5c-0.8-0.3-1.6-0.8-2.3-1.4c-0.6-0.6-1.2-1.4-1.5-2.2c-0.4-0.9-0.6-1.9-0.6-2.9c0-0.9,0.2-1.8,0.5-2.7
	c0.7-1.7,2-3,3.6-3.7c0.9-0.4,1.8-0.6,2.8-0.6c0.9,0,1.9,0.2,2.7,0.5c0.8,0.3,1.5,0.9,2.1,1.5c0.6,0.7,1.1,1.5,1.4,2.3
	c0.3,1,0.5,2,0.5,3v0.8H153.7L153.7,17.1z M160,13.8c-0.1-0.4-0.3-0.7-0.6-1c-0.3-0.3-0.6-0.6-1-0.7c-0.5-0.2-1-0.3-1.5-0.3
	c-0.5,0-1,0.1-1.4,0.3c-0.4,0.2-0.7,0.4-1,0.7c-0.3,0.3-0.5,0.6-0.6,1c-0.1,0.3-0.2,0.7-0.3,1h6.6C160.2,14.4,160.1,14.1,160,13.8
	 M146.5,19.5c0.2,0.3,0.6,0.4,0.9,0.4c0.3,0,0.5,0,0.7-0.1c0.2-0.1,0.3-0.1,0.5-0.3l0.8,2.6c-0.3,0.3-0.7,0.5-1.1,0.6
	c-0.6,0.2-1.2,0.3-1.8,0.2c-1,0.1-2-0.3-2.8-0.9c-0.7-0.7-1-1.7-1-2.7v-7h-2.2V9.3h2.2V5.7h3.6v3.6h2.7v3.1h-2.7v6
	C146.2,18.8,146.3,19.2,146.5,19.5 M135.4,21c-0.5,0.6-1.2,1-1.9,1.4c-0.9,0.4-1.9,0.6-2.8,0.6c-2.1,0.3-4-1.1-4.3-3.2
	c0-0.3-0.1-0.6,0-1V9.3h3.5v8.1c-0.1,0.7,0.2,1.4,0.7,1.9c0.5,0.4,1.2,0.6,1.8,0.5c0.6,0,1.3-0.1,1.8-0.5c0.5-0.3,0.9-0.6,1.2-1v-9
	h3.5v13.3h-3.5L135.4,21L135.4,21z M119.9,4.3h3.5v18.4h-3.5V4.3z M115.9,20.9c-0.6,0.6-1.4,1.2-2.2,1.5c-0.9,0.4-2,0.6-3,0.6
	c-1,0-2-0.2-3-0.6c-1.7-0.7-3-2-3.6-3.7c-0.3-0.9-0.5-1.8-0.5-2.7c0-0.9,0.2-1.8,0.5-2.7c0.3-0.8,0.8-1.6,1.4-2.2
	c0.6-0.7,1.4-1.2,2.2-1.5c0.9-0.4,2-0.6,3-0.6c1,0,2,0.2,3,0.6c0.8,0.3,1.6,0.9,2.2,1.5c0.6,0.6,1.1,1.4,1.4,2.2
	c0.3,0.9,0.5,1.8,0.5,2.7c0,0.9-0.2,1.8-0.5,2.7C116.9,19.5,116.5,20.3,115.9,20.9 M113.8,14.5c-0.1-0.4-0.4-0.9-0.7-1.2
	c-0.3-0.4-0.7-0.6-1.1-0.8c-0.5-0.2-1-0.3-1.5-0.3c-0.5,0-1,0.1-1.5,0.3c-0.4,0.2-0.8,0.5-1.1,0.8c-0.3,0.4-0.5,0.8-0.7,1.2
	c-0.1,0.5-0.2,1-0.2,1.5c0,0.5,0.1,1,0.2,1.5c0.1,0.4,0.4,0.9,0.7,1.2c0.3,0.3,0.7,0.6,1.1,0.9c0.5,0.2,1,0.3,1.5,0.3
	c0.5,0,1-0.1,1.5-0.3c0.4-0.2,0.8-0.5,1.1-0.9c0.3-0.4,0.5-0.8,0.7-1.2c0.2-0.5,0.2-1,0.2-1.5C114.1,15.5,114,15,113.8,14.5
	 M94.9,13.7c0.5,0.2,1,0.3,1.5,0.4c0.6,0.1,1.2,0.2,1.9,0.4c0.7,0.2,1.3,0.4,1.9,0.7c0.6,0.3,1.1,0.7,1.5,1.3
	c0.4,0.6,0.6,1.4,0.6,2.1c0,0.6-0.1,1.2-0.4,1.7c-0.3,0.5-0.7,1-1.1,1.4c-0.5,0.4-1.2,0.7-1.8,0.9c-0.8,0.2-1.6,0.3-2.5,0.3
	c-1.1,0-2.3-0.2-3.3-0.5c-1-0.3-1.9-0.8-2.7-1.5l1.5-2.5c0.3,0.3,0.6,0.5,0.9,0.7c0.4,0.2,0.8,0.4,1.2,0.6c0.4,0.2,0.8,0.3,1.3,0.4
	c0.4,0.1,0.9,0.2,1.3,0.2c0.6,0,1.2-0.1,1.7-0.4c0.3-0.2,0.5-0.6,0.5-1c0-0.4-0.2-0.7-0.6-0.8c-0.5-0.2-1-0.4-1.5-0.5
	c-0.6-0.1-1.2-0.2-1.9-0.4c-0.7-0.1-1.3-0.4-1.9-0.7c-0.6-0.3-1.1-0.7-1.5-1.2c-0.4-0.6-0.6-1.3-0.6-2.1c0-0.5,0.1-1.1,0.4-1.6
	c0.3-0.5,0.6-1,1.1-1.3c0.5-0.4,1.1-0.7,1.7-0.9C94.9,9.1,95.6,9,96.4,9c1,0,2.1,0.2,3.1,0.5c0.8,0.3,1.6,0.8,2.3,1.3l-1.4,2.4
	c-0.5-0.5-1-0.8-1.7-1.1c-0.7-0.3-1.5-0.5-2.3-0.5c-0.5,0-1.1,0.1-1.5,0.4c-0.3,0.2-0.6,0.5-0.6,0.9C94.4,13.3,94.6,13.6,94.9,13.7
	 M87.8,21.2c-0.5,0.6-1.2,1-1.9,1.4c-0.7,0.3-1.5,0.5-2.4,0.5c-0.8,0-1.6-0.2-2.3-0.5c-0.7-0.4-1.4-0.9-1.9-1.5v1.7h-3.5V4.3h3.5
	v6.8c0.5-0.6,1.1-1.2,1.9-1.5C82,9.2,82.8,9,83.6,9c0.8,0,1.6,0.2,2.4,0.5c0.7,0.3,1.4,0.8,1.9,1.4c0.6,0.6,1,1.4,1.2,2.2
	c0.3,0.9,0.5,1.9,0.4,2.9c0,1-0.1,2-0.5,3C88.8,19.8,88.4,20.5,87.8,21.2 M84.9,13.2c-0.6-0.7-1.5-1.1-2.5-1.1
	c-0.6,0-1.2,0.2-1.7,0.4c-0.5,0.3-1,0.6-1.3,1.1v4.7c0.3,0.5,0.8,0.8,1.3,1.1c0.5,0.3,1.1,0.4,1.7,0.4c0.9,0,1.9-0.4,2.5-1.1
	C86.2,17.1,86.2,14.9,84.9,13.2 M65,19.3c0.8,0.6,1.7,1,2.7,0.9c0.3,0,0.6,0,0.9-0.1c0.3-0.1,0.7-0.2,1-0.3c0.3-0.1,0.6-0.2,0.9-0.4
	c0.3-0.2,0.5-0.3,0.8-0.5l1.6,2.3c-0.7,0.6-1.6,1.1-2.5,1.4c-1,0.3-2,0.5-3.1,0.5c-1,0-1.9-0.2-2.8-0.5c-1.7-0.6-3.1-1.9-3.8-3.6
	C60.3,18,60.2,17,60.2,16c0-0.9,0.2-1.8,0.5-2.7c0.7-1.7,2-3,3.6-3.7C65.2,9.2,66.2,9,67.1,9c0.9,0,1.9,0.2,2.7,0.5
	c0.8,0.3,1.5,0.9,2.1,1.5c0.6,0.7,1.1,1.5,1.4,2.3c0.3,1,0.5,2,0.5,3v0.8h-10C64,18,64.4,18.7,65,19.3 M70.4,14.7
	c0-0.3-0.1-0.7-0.2-1c-0.3-0.7-0.9-1.3-1.6-1.7c-0.5-0.2-1-0.3-1.5-0.3c-0.5,0-1,0.1-1.4,0.3c-0.4,0.2-0.7,0.4-1,0.7
	c-0.3,0.3-0.5,0.6-0.6,1c-0.1,0.3-0.2,0.7-0.3,1H70.4z M52,22.7l-2.8-9.1l-2.8,9.1h-3.8L38.5,9.3h3.7l2.5,9l2.9-9h3.1l2.9,9l2.5-9
	h3.7l-4.1,13.3H52L52,22.7z M16.1,31.6c-8.6,0-15.6-7.1-15.5-15.7c0-8.6,7.1-15.6,15.7-15.5c8.6,0,15.5,7,15.6,15.6
	C31.8,24.7,24.8,31.7,16.1,31.6C16.1,31.6,16.1,31.6,16.1,31.6 M24.1,11.5h-2.7V16c0,0.5-0.2,1-0.6,1.3c-0.2,0.2-0.4,0.3-0.6,0.4
	c-0.2,0.1-0.5,0.1-0.8,0.1c-0.3,0-0.5,0-0.8-0.1c-0.2-0.1-0.4-0.2-0.6-0.4c-0.4-0.3-0.6-0.8-0.6-1.3v-4.5h-2.7V16
	c0,0.5-0.2,1-0.6,1.4c-0.3,0.4-0.8,0.6-1.4,0.6c-0.5,0-1-0.2-1.4-0.6c-0.4-0.3-0.6-0.8-0.6-1.3v-4.6H8.2V16c0,1.2,0.5,2.3,1.4,3.2
	c0.9,0.9,2.1,1.4,3.3,1.3c1.2,0,2.4-0.4,3.3-1.3l0,0l0,0c1.8,1.8,4.7,1.8,6.6,0c0.9-0.8,1.4-2,1.4-3.2V11.5z"/>
</svg>
