<?xml version="1.0" encoding="utf-8"?>
<!-- Generator: Adobe Illustrator 23.0.1, SVG Export Plug-In . SVG Version: 6.00 Build 0)  -->
<svg version="1.1" id="ws_1_" xmlns="http://www.w3.org/2000/svg" xmlns:xlink="http://www.w3.org/1999/xlink" x="0px" y="0px"
	 viewBox="0 0 40 40" style="enable-background:new 0 0 40 40;" xml:space="preserve">
<style type="text/css">
	.st0{fill-rule:evenodd;clip-rule:evenodd;fill:#FFFFFF;}
</style>
<path id="ws" class="st0" d="M20,39.6C9.2,39.5,0.5,30.7,0.6,19.9C0.6,9.1,9.4,0.4,20.2,0.5C31,0.5,39.7,9.3,39.7,20
	C39.6,30.8,30.8,39.6,20,39.6C20,39.6,20,39.6,20,39.6 M30,14.4h-3.3V20c0,0.6-0.2,1.3-0.7,1.7c-0.2,0.2-0.5,0.4-0.8,0.5
	c-0.6,0.2-1.3,0.2-1.9,0c-0.3-0.1-0.6-0.3-0.8-0.5c-0.5-0.4-0.7-1-0.7-1.7v-5.6h-3.3V20c0,0.6-0.3,1.2-0.7,1.7
	c-0.4,0.5-1.1,0.7-1.7,0.7c-0.7,0-1.3-0.2-1.8-0.7c-0.4-0.4-0.7-1-0.7-1.6v-5.7h-3.3V20c0,1.5,0.6,2.9,1.7,4
	c1.1,1.1,2.6,1.7,4.1,1.7c1.5,0,3-0.6,4.1-1.7l0,0l0,0c2.3,2.2,5.9,2.2,8.2,0c1.1-1,1.7-2.5,1.7-4L30,14.4L30,14.4z"/>
</svg>
