<?xml version="1.0" encoding="utf-8"?>
<!-- Generator: Adobe Illustrator 23.0.1, SVG Export Plug-In . SVG Version: 6.00 Build 0)  -->
<svg version="1.1" id="xplace" xmlns="http://www.w3.org/2000/svg" xmlns:xlink="http://www.w3.org/1999/xlink" x="0px" y="0px"
	 viewBox="0 0 84 27" style="enable-background:new 0 0 84 27;" xml:space="preserve">
<style type="text/css">
	.st0{fill-rule:evenodd;clip-rule:evenodd;fill:#FFFFFF;}
</style>
<path id="xplace_1_" class="st0" d="M26.8,8.7c1.2,1.4,1.8,3.3,1.7,5.1c0.1,1.9-0.4,3.9-1.6,5.4c-1,1.2-2.6,1.9-4.2,1.9
	c-1,0-1.9-0.2-2.7-0.8c-0.5-0.4-0.8-0.8-1.2-1.3v7h-3.5V7.3h3.4v2c0.3-0.5,0.7-1,1.2-1.4C20.7,7.3,21.7,7,22.7,7
	C24.3,6.9,25.8,7.6,26.8,8.7 M24.1,11.3c-0.5-0.8-1.4-1.3-2.3-1.2c-1.2-0.1-2.3,0.7-2.7,1.8c-0.3,0.8-0.4,1.6-0.4,2.5
	c-0.1,1.2,0.3,2.5,1.3,3.3c0.5,0.4,1.1,0.6,1.8,0.6c0.9,0,1.8-0.4,2.3-1.1C25.1,15.3,25.1,13.1,24.1,11.3 M30.3,7.4h3.8v10.1h7.7
	v3.3H30.3V7.4z M49.4,12.6c0.5,0,1-0.2,1.4-0.3s0.8-0.5,0.8-1s-0.2-0.9-0.6-1.1c-0.5-0.2-1.1-0.3-1.7-0.3c-0.7-0.1-1.3,0.2-1.8,0.6
	c-0.3,0.4-0.5,0.8-0.5,1.2h-3.4c0-1.1,0.4-2.1,1-2.9C45.5,7.6,47.2,7,49.4,7c1.4,0,2.7,0.3,4,0.9c1.2,0.7,1.9,2,1.7,3.3v6.2
	c0,0.4,0,1,0,1.6c0,0.3,0.1,0.7,0.2,0.9c0.1,0.2,0.3,0.3,0.5,0.4v0.5H52c-0.1-0.2-0.2-0.5-0.2-0.8c0-0.3-0.1-0.5-0.1-0.8
	c-0.5,0.5-1.1,1-1.7,1.4c-0.8,0.4-1.7,0.7-2.6,0.6c-1.1,0-2.2-0.3-3.1-1c-0.8-0.8-1.3-1.8-1.2-3c-0.1-1.5,0.7-2.9,1.9-3.6
	c1-0.5,2-0.8,3.1-0.9L49.4,12.6z M51.6,14.2c-0.2,0.1-0.4,0.3-0.7,0.4c-0.3,0.1-0.6,0.2-1,0.2l-0.8,0.1c-0.6,0.1-1.1,0.2-1.6,0.5
	s-0.9,0.9-0.8,1.5c0,0.5,0.1,1,0.5,1.3c0.4,0.3,0.8,0.4,1.2,0.4c0.8,0,1.5-0.2,2.1-0.7c0.7-0.6,1.1-1.5,1-2.5L51.6,14.2L51.6,14.2z
	 M65.5,12.1c-0.1-0.5-0.2-1-0.5-1.4c-0.4-0.6-1.1-0.9-1.8-0.8c-1.2,0-2.2,0.7-2.5,1.8c-0.3,0.8-0.4,1.7-0.3,2.5
	c0,0.8,0.1,1.6,0.3,2.4c0.3,1,1.3,1.7,2.4,1.7c0.7,0.1,1.3-0.2,1.8-0.7c0.4-0.5,0.6-1.1,0.6-1.7h3.6c-0.1,1.1-0.5,2.2-1.2,3
	c-1.1,1.6-3,2.4-4.9,2.3c-1.8,0.1-3.6-0.6-4.8-1.9c-1.1-1.4-1.6-3.2-1.5-5c-0.1-2,0.5-3.9,1.7-5.4c1.2-1.3,2.9-2,4.7-1.9
	c1.5-0.1,2.9,0.3,4.2,1.1c1.2,1,1.9,2.5,1.9,4L65.5,12.1L65.5,12.1z M80.4,7.5c1,0.4,1.8,1.1,2.3,2c0.6,0.8,0.9,1.8,1.1,2.8
	C84,13.2,84,14.1,84,15h-9.9c-0.1,1.1,0.5,2.2,1.4,2.9c0.6,0.4,1.3,0.5,2,0.5s1.4-0.2,2-0.6c0.3-0.3,0.6-0.6,0.7-0.9h3.6
	c-0.2,0.9-0.6,1.8-1.3,2.5c-1.3,1.4-3.2,2.1-5.1,2c-1.7,0-3.4-0.6-4.8-1.7c-1.4-1.1-2.1-2.9-2.1-5.4c-0.1-2,0.5-3.9,1.9-5.4
	c1.3-1.3,3-1.9,4.8-1.9C78.4,6.9,79.4,7.1,80.4,7.5 M75.2,10.6c-0.5,0.6-0.9,1.3-0.9,2.1h6.1c0-0.8-0.3-1.6-0.9-2.1
	s-1.3-0.8-2.1-0.7C76.5,9.8,75.7,10,75.2,10.6 M0,20.8l4.6-6.9L0.2,7.3h4.3l2.3,3.9L9,7.3h4.2l-4.4,6.6l4.6,6.9H9l-2.3-4.1l-2.4,4.1
	H0L0,20.8z"/>
</svg>
